<svg version="1.1" xmlns="http://www.w3.org/2000/svg" xmlns:xlink="http://www.w3.org/1999/xlink" width="100.10728" height="100.10728" viewBox="0,0,100.10728,100.10728"><defs><radialGradient cx="240" cy="180" r="50.05364" gradientUnits="userSpaceOnUse" id="color-1"><stop offset="0" stop-color="#ff0000"/><stop offset="1" stop-color="#ff0000" stop-opacity="0"/></radialGradient><radialGradient cx="240" cy="180" r="50.05364" gradientUnits="userSpaceOnUse" id="color-2"><stop offset="0" stop-color="#ff0000" stop-opacity="0"/><stop offset="1" stop-color="#ff0000"/></radialGradient></defs><g transform="translate(-189.94636,-129.94636)"><g data-paper-data="{&quot;isPaintingLayer&quot;:true}" fill-rule="nonzero" stroke="none" stroke-width="0" stroke-linecap="butt" stroke-linejoin="miter" stroke-miterlimit="10" stroke-dasharray="" stroke-dashoffset="0" style="mix-blend-mode: normal"><path d="M189.94636,180c0,-27.64388 22.40976,-50.05364 50.05364,-50.05364c27.64388,0 50.05364,22.40976 50.05364,50.05364c0,27.64388 -22.40976,50.05364 -50.05364,50.05364c-27.64388,0 -50.05364,-22.40976 -50.05364,-50.05364z" fill="url(#color-1)"/><path d="M189.94636,180c0,-27.64388 22.40976,-50.05364 50.05364,-50.05364c27.64388,0 50.05364,22.40976 50.05364,50.05364c0,27.64388 -22.40976,50.05364 -50.05364,50.05364c-27.64388,0 -50.05364,-22.40976 -50.05364,-50.05364z" fill="url(#color-2)"/></g></g></svg>